/* XPM */
static char *_f93a794406c4fd8a46bdc3df429a3af[] = {
/* columns rows colors chars-per-pixel */
"16 16 136 2 ",
"   c #6F673D",
".  c #6D663F",
"X  c #6E673E",
"o  c #6F683F",
"O  c #72693D",
"+  c #796E3D",
"@  c #7C703E",
"#  c #384C5E",
"$  c #294567",
"%  c #2F4864",
"&  c #22426B",
"*  c #23426B",
"=  c #24426A",
"-  c #25436A",
";  c #24426B",
":  c #21416C",
">  c #22416C",
",  c #23426C",
"<  c #23436C",
"1  c #24436D",
"2  c #24446D",
"3  c #24446E",
"4  c #24446F",
"5  c #29476C",
"6  c #3A5168",
"7  c #254570",
"8  c #254671",
"9  c #244672",
"0  c #254672",
"q  c #264773",
"w  c #264874",
"e  c #264876",
"r  c #274976",
"t  c #264A79",
"y  c #284B7A",
"u  c #2A4C79",
"i  c #2E4F79",
"p  c #294D7C",
"a  c #284C7D",
"s  c #284D7F",
"d  c #294E7E",
"f  c #284E7F",
"g  c #2A4E7E",
"h  c #2F5078",
"j  c #365170",
"k  c #395471",
"l  c #5D5E47",
"z  c #5F5E46",
"x  c #5F5F46",
"c  c #55594B",
"v  c #565A4B",
"b  c #545A4E",
"n  c #5A5C48",
"m  c #5A5C49",
"M  c #595C4B",
"N  c #5C5D48",
"B  c #5F5F48",
"V  c #595D4C",
"C  c #4E5852",
"Z  c #435258",
"A  c #605F45",
"S  c #5E614C",
"D  c #566059",
"F  c #576059",
"G  c #636143",
"H  c #646143",
"J  c #666242",
"K  c #666243",
"L  c #626044",
"P  c #636246",
"I  c #646245",
"U  c #656346",
"Y  c #6A6541",
"T  c #6B6541",
"R  c #6A6542",
"E  c #6A6645",
"W  c #6F6942",
"Q  c #6F6943",
"!  c #6F6A46",
"~  c #676549",
"^  c #61634E",
"/  c #686649",
"(  c #6B6948",
")  c #6E6A48",
"_  c #706941",
"`  c #736B41",
"'  c #756D42",
"]  c #766D42",
"[  c #716B44",
"{  c #636550",
"}  c #455967",
"|  c #485A64",
" . c #847437",
".. c #8D7833",
"X. c #89793B",
"o. c #937E37",
"O. c #998132",
"+. c #9D8330",
"@. c #AF8C27",
"#. c #BB9527",
"$. c #CC9E20",
"%. c #284E80",
"&. c #284E81",
"*. c #2A4F80",
"=. c #294F82",
"-. c #2A5081",
";. c #2A5082",
":. c #2B5082",
">. c #2B5183",
",. c #2B5184",
"<. c #2B5284",
"1. c #2C5285",
"2. c #2C5386",
"3. c #2C5387",
"4. c #2C5487",
"5. c #2D5489",
"6. c #2D5589",
"7. c #2D558A",
"8. c #2D558B",
"9. c #2D568B",
"0. c #2E568C",
"q. c #2E578D",
"w. c #2E588E",
"e. c #2F588F",
"r. c #2F5990",
"t. c #2F5991",
"y. c #305A91",
"u. c #305B93",
"i. c #305B94",
"p. c #315B94",
"a. c #315C95",
"s. c #315C96",
"d. c #315D97",
"f. c #325D97",
"g. c #325E98",
"h. c None",
/* pixels */
"* * * , 2 w w y g >.3.5.9.t.i.d.",
"* * * * ; 9 w t g *.3.5.q.t.d.g.",
"* * * * , 2 9 6 j a >.4.0.r.d.d.",
"* * * * , , 5 + ) g *.3.0.r.u.d.",
"* * * * * , C _ _ | &.>.0.0.y.d.",
"* * * * * % O +.X.! i >.3.0.y.d.",
"* * * * , v  .$.#.] D &.>.0.q.u.",
"* * * , # . ..+ O.o.[ k *.4.q.y.",
"* * * * I z v v I @.] { g 3.0.0.",
"* * * Z . z z n v E / / } *.4.5.",
"* * $ . z z G n n v V S ( i >.3.",
"* * b   H A H A G H H U W D a >.",
"* * z W . R . . R . R R W ^ y g ",
"* * * * ; ; * * ; ; ; ; , 9 r y ",
"* * * * * * * * * * * * ; 2 9 w ",
"h.* * * * * * * * * * * ; < 2 h."
};
