/* XPM */
static char *_18bc657a7ee42f389632d1f1688261f[] = {
/* columns rows colors chars-per-pixel */
"32 32 86 1 ",
"  c #6E663C",
". c #7E6E35",
"X c #70673C",
"o c #74693B",
"O c #796C3A",
"+ c #7E713A",
"@ c #374B5E",
"# c #3A4D5C",
"$ c #2C4665",
"% c #23426B",
"& c #2E4B6E",
"* c #344A62",
"= c #3F5362",
"- c #37526F",
"; c #3A526C",
": c #254672",
"> c #264976",
", c #2C4C75",
"< c #274B7B",
"1 c #294D7D",
"2 c #314F72",
"3 c #345171",
"4 c #4F574F",
"5 c #5D5D47",
"6 c #50574F",
"7 c #53594D",
"8 c #5A5D4B",
"9 c #445256",
"0 c #4C5652",
"q c #4E5854",
"w c #43535D",
"e c #48565C",
"r c #4E5A5A",
"t c #515A53",
"y c #525D5A",
"u c #605F45",
"i c #5E604C",
"p c #5C6253",
"a c #646143",
"s c #6B6540",
"d c #64654B",
"f c #6D6948",
"g c #736C42",
"h c #786E40",
"j c #415462",
"k c #455864",
"l c #495961",
"z c #8C752D",
"x c #9C7E26",
"c c #937A2C",
"v c #9A7E29",
"b c #847334",
"n c #8A7530",
"m c #8D7935",
"M c #84743A",
"N c #957E33",
"B c #AE881E",
"V c #B58B19",
"C c #B88E1B",
"Z c #BE931C",
"A c #9F8024",
"S c #9F832E",
"D c #9B8233",
"F c #A18124",
"G c #A88521",
"H c #AE8921",
"J c #A88728",
"K c #AC8B29",
"L c #B78F20",
"P c #BB9322",
"I c #CA9B1C",
"U c #D29F17",
"Y c #CFA01E",
"T c #D3A11A",
"R c #DAA618",
"E c #DDA819",
"W c #E3AD1A",
"Q c #C69B22",
"! c #2A4F80",
"~ c #2B5284",
"^ c #2D558B",
"/ c #2E588E",
"( c #2F5990",
") c #305B94",
"_ c #325E98",
"` c None",
/* pixels */
"``%%%%%%%:::,,111!!~~~^^^//())``",
"`%%%%%%%%:::>>>111!~~^^^^//))))`",
"%%%%%%%%%%%:>>><11!!~~~^//()))__",
"%%%%%%%%%%:::>><11!!!~^^^/(())__",
"%%%%%%%%%%%:::>,<<1!!~~^^/())___",
"%%%%%%%%%%:%:::dr<1!!~~^^^/())__",
"%%%%%%%%%%%%%:=BN,11!~~^^^(()___",
"%%%%%%%%%%%%%:bcFd<1!~~~^^/(()__",
"%%%%%%%%%%%%%qFjdF-<!!!^^^/(()__",
"%%%%%%%%%%%%$cg8eNh<1!!~~^^/()__",
"%%%%%%%%%%%%avtLMyGl<!!~~^^/())_",
"%%%%%%%%%%%@x8mWIy+m,<!!~^^^()))",
"%%%%%%%%%%%Xz5IWWDwFp1!!~~^^/())",
"%$%%%%%%%%9A7vRQTYpdv-1!~~~^^())",
"%%%%%%%%%%zXaII8NTKjcg<!!~~^^(()",
"%%%%%%%%%4x9nHn$9QTgyFk<!!~^^^((",
"%%%%%%%%$ca$@@*50oTPk+b<1~~~^^/(",
"%%%%%%%%az4X   a @JUM=Fp11!~^^^/",
"%%%%%%%@x7 44774 87ZCqdv-!!!~^^/",
"%%%%%%% b755.555a4%6ij&vf<<~!~^^",
"%%%%%%9x4 9za664447446wtAk<1!~^^",
"%%%%%$z 54@aaaaa5aauadOw+M<1!~~~",
"%%%%%7c9z aaaaaaaaaaaa.o=Ay<1!!~",
"%%%%$c @446466667474746e-ON21!!~",
"%%%%uVAAxxFxFFxAAxxxFxFxAGBd><1!",
"%%%%94440000000044404044qqq=<<1!",
"%%%%%%%%%%%%%%%%%%%%%%%%%:::><11",
"%%%%%%%%%%%%%%%%%%%%%%%%%%::>><<",
"%%%%%%%%%%%%%%%%%%%%%%%%%%%::>:,",
"`%%%%%%%%%%%%%%%%%%%%%%%%%%:%:>`",
"`%%%%%%%%%%%%%%%%%%%%%%%%%%%%::`",
"````%%%%%%%%%%%%%%%%%%%%%%%%````"
};
