/* XPM */
static char *_c93ff117f134663f739ad957bbf6a66[] = {
/* columns rows colors chars-per-pixel */
"64 64 101 2 ",
"   c #67623F",
".  c #6C643D",
"X  c #766936",
"o  c #7A6B35",
"O  c #71673A",
"+  c #74693A",
"@  c #7B6E3B",
"#  c #354A5E",
"$  c #3D4D59",
"%  c #3F515E",
"&  c #1F416E",
"*  c #274467",
"=  c #2C4664",
"-  c #2E4966",
";  c #23426B",
":  c #2A4669",
">  c #2D4A6C",
",  c #334A63",
"<  c #394F64",
"1  c #334D69",
"2  c #3E5265",
"3  c #37506C",
"4  c #3A5269",
"5  c #254673",
"6  c #264976",
"7  c #2C4B73",
"8  c #274A7A",
"9  c #294D7D",
"0  c #314E71",
"q  c #4E564E",
"w  c #5D5D45",
"e  c #51574D",
"r  c #555A4B",
"t  c #5A5D4B",
"y  c #414F57",
"u  c #445154",
"i  c #495352",
"p  c #44545C",
"a  c #48565A",
"s  c #4C595B",
"d  c #545C53",
"f  c #585F53",
"g  c #615F43",
"h  c #5D604D",
"j  c #646142",
"k  c #696543",
"l  c #6F6840",
"z  c #64644A",
"x  c #726A40",
"c  c #445661",
"v  c #A17F1E",
"b  c #836F2F",
"n  c #8F7527",
"m  c #85712E",
"M  c #8B752C",
"N  c #8F782E",
"B  c #927726",
"V  c #967A26",
"C  c #9D7D23",
"Z  c #907629",
"A  c #947A2B",
"S  c #997D28",
"D  c #826F30",
"F  c #847234",
"G  c #8A7531",
"H  c #8E7832",
"J  c #927B30",
"K  c #A07F22",
"L  c #A6811C",
"P  c #AC861C",
"I  c #AE891F",
"U  c #B58A17",
"Y  c #BB8E16",
"T  c #B48A19",
"R  c #B88D19",
"E  c #BE9015",
"W  c #BC921E",
"Q  c #9F8024",
"!  c #9E812B",
"~  c #A28122",
"^  c #AC8923",
"/  c #B48E22",
"(  c #B99020",
")  c #C19215",
"_  c #CA9916",
"`  c #C4961A",
"'  c #C6981A",
"]  c #CC9C19",
"[  c #D19F18",
"{  c #D4A21A",
"}  c #D9A51A",
"|  c #DDA91B",
" . c #E3AD1C",
".. c #2A4F80",
"X. c #2B5284",
"o. c #2D558B",
"O. c #2F588F",
"+. c #2F5990",
"@. c #305B94",
"#. c #325E98",
"$. c None",
/* pixels */
"$.$.$.$.; ; ; ; ; ; ; ; ; ; ; ; ; 5 5 5 5 5 5 5 6 6 8 8 8 9 9 9 9 9 9 X.X.X.X.X.X.X.X.X.o.o.o.o.o.o.O.O.+.+.+.+.@.@.@.@.$.$.$.$.",
"$.$.$.; ; ; ; ; ; ; ; ; ; ; ; ; 5 ; * 5 5 5 7 5 6 6 8 6 8 8 9 9 9 9 9 X.9 X.X.X.X.o.o.o.X.o.o.o.o.O.O.O.+.+.+.+.+.@.@.@.#.$.$.$.",
"$.$.; ; ; ; ; ; ; ; ; ; ; ; ; * ; 5 5 5 5 5 5 5 5 6 8 8 6 8 9 9 9 9 9 9 X.X.9 X.X.X.X.X.o.o.o.o.o.o.o.+.+.+.+.+.@.+.@.@.#.#.$.$.",
"$.; ; ; ; ; ; ; ; ; ; ; ; ; ; ; ; 5 ; ; 5 5 5 5 6 6 6 7 7 8 8 8 9 9 9 X.9 9 X.X.X.X.o.o.X.o.o.o.O.O.o.O.+.+.+.@.@.@.@.#.#.#.#.$.",
"$.; ; ; ; ; ; ; ; ; ; ; ; ; ; ; ; ; 5 5 5 5 5 5 5 6 6 6 6 8 8 9 9 9 9 9 9 X.X.X.X.X.X.X.X.o.o.o.o.+.o.+.+.+.+.@.@.@.@.#.#.#.#.$.",
"$.; ; ; ; ; ; ; ; ; ; ; ; ; ; ; ; ; ; ; ; * 5 5 5 5 6 6 6 8 8 8 8 9 9 X.X.9 X.9 X.X.o.X.o.X.o.o.o.o.O.+.+.+.+.@.@.@.@.@.#.#.#.$.",
"$.; ; ; ; ; ; ; ; ; ; ; ; ; ; ; ; ; ; * 5 ; 5 5 5 5 6 7 6 6 8 8 8 9 9 9 9 X.9 X.X.X.X.o.X.o.o.o.O.o.O.+.+.O.+.+.@.@.@.#.#.#.#.$.",
"$.; ; ; ; ; ; ; ; ; ; ; ; ; ; ; ; ; ; ; ; 5 ; 5 5 5 5 8 6 6 8 8 8 9 9 9 9 9 9 X.X.X.X.X.X.o.o.o.o.O.O.o.+.+.+.@.+.@.#.#.#.#.#.$.",
"$.; ; ; ; ; ; ; ; ; ; ; ; ; ; * ; ; ; ; ; * 5 5 : 5 5 5 6 6 6 8 8 9 8 9 9 X.9 X.X.X.X.X.X.o.o.X.o.O.o.O.+.O.+.@.@.@.@.#.#.#.#.$.",
"$.; ; ; ; ; ; ; ; ; ; ; ; ; ; ; ; ; ; ; * ; ; 5 5 5 5 5 6 6 6 7 7 8 9 9 9 9 X.9 9 X.X.X.X.o.o.o.o.o.O.o.O.+.+.+.@.@.@.#.#.#.#.$.",
"$.; ; ; ; ; ; ; ; ; ; ; ; ; ; ; ; ; ; ; ; ; 5 ; 5 5 5 5 6 6 7 + c 8 8 9 9 9 9 9 9 X.X.X.X.X.o.o.o.o.o.O.O.+.@.@.@.@.@.#.#.#.#.$.",
"$.; * ; ; ; ; ; ; ; ; ; ; ; ; ; ; ; ; ; ; ; ; 5 ; 5 5 5 5 6 d U F 7 8 9 9 9 X.X.X.X.X.X.o.X.X.X.o.O.O.o.O.+.o.@.+.@.@.#.#.#.#.$.",
"$.; ; ; ; ; ; ; ; ; ; ; ; ; ; ; ; ; ; ; ; ; ; ; 5 5 5 5 6 1 A E T d 8 8 8 9 X.9 9 X.X.X.X.X.o.o.o.o.o.o.o.@.+.@.@.@.@.#.#.#.#.$.",
"$.; ; ; ; ; ; ; * ; ; ; ; ; ; ; ; ; ; ; ; ; ; 5 ; ; 5 5 5 j Y ) ` A 0 8 9 9 9 9 X.9 9 X.X.X.X.o.o.o.o.o.O.+.+.+.@.@.@.@.#.#.#.$.",
"$.; ; ; ; ; ; ; ; ; ; ; ; ; * ; ; ; ; ; ; ; ; ; ; ; * 5 2 ~ ) C R Y k 8 8 8 9 9 9 9 X.X.X.X.o.X.o.o.O.o.o.O.O.@.@.@.#.@.#.#.#.$.",
"$.; ; ; ; ; ; ; ; ; ; ; ; ; ; ; ; ; ; ; ; ; ; ; ; 5 ; 5 + ) ~ p G ) ~ 2 8 9 9 9 9 X...X.X.X.X.o.o.o.o.O.O.O.+.O.O.@.@.@.#.#.#.$.",
"$.; ; ; ; ; ; ; ; ; ; ; ; ; ; ; ; ; ; ; ; ; ; ; ; ; 5 u P E j 6 p I E @ 8 8 9 9 ..9 ....X.X.X.X.X.X.o.o.o.O.O.O.@.@.@.@.#.#.#.$.",
"$.; ; ; ; ; ; ; ; ; ; ; ; ; ; ; * ; ; ; ; ; ; ; ; ; * m ) A 1 6 5 . E T s 8 8 9 9 ......X.X.X.o.o.o.o.o.o.O.O.O.O.@.@.@.#.#.#.$.",
"$.; ; ; ; ; ; ; ; ; ; ; ; ; ; ; ; ; ; ; ; ; ; ; ; ; r U U d > w > 3 Q E A 0 8 9 9 9 ......X.X.X.X.o.o.o.o.O.O.O.@.@.@.O.@.#.#.$.",
"$.; ; ; ; ; ; ; ; ; ; ; ; ; ; ; ; ; ; ; ; ; ; ; ; , S ) F : r T h 5 f R Y z 8 9 9 ..........X.X.X.X.o.o.O.O.O.O.O.@.@.@.#.#.#.$.",
"$.; ; ; ; ; ; ; ; ; ; ; ; ; ; ; ; ; ; ; ; ; ; ; ;   Y P p - S ] ~ 1 7 G E Q 4 8 8 9 9 ....X.X.X.o.X.X.o.o.o.o.O.+.+.+.@.@.#.#.$.",
"$.; ; ; ; ; ; ; ; ; ; ; ; ; ; ; ; ; ; ; ; ; ; ; $ v E + ; l ] [ ] + 6 p I E @ 8 9 9 9 9 ......X.X.X.o.o.o.o.O.o.+.+.@.@.@.@.#.$.",
"$.; ; ; ; ; ; ; ; ; ; ; ; ; ; ; ; ; ; ; * ; ; ; o E C , < / { { } ( % 6 O E I s 8 9 9 ........X.X.X.o.X.o.o.o.O.O.+.@.+.@.@.#.$.",
"$.; ; ; ; ; ; ; ; ; ; ; ; * ; ; ; ; ; ; ; ; ; u P Y w ; F } |  .} } G 5 1 Q E H 7 9 9 9 ......X.X.o.X.o.o.o.o.O.o.+.+.@.@.@.#.$.",
"$.; ; ; ; ; ; ; ; ; ; ; ; * ; ; ; ; ; ; ; ; * m ) n * i '  . . .| | ' d 8 f U Y h 9 9 9 ..........o.o.X.o.o.o.o.+.+.+.@.@.@.@.$.",
"$.; ; ; ; ; ; ; ; ; ; ; ; ; ; ; * ; ; ; ; & w U U i * A {  . . . .| { ! 7 7 G E Q 3 8 9 9 9 ......X...o.o.o.o.o.o.+.+.+.@.@.#.$.",
"$.; ; ; ; ; ; ; ; ; ; ; ; ; ; ; ; ; ; ; ; # v ) o ; w ] }  . . .| | } ] z 5 a I E x 8 9 9 ..........o...X.o.o.o.o.+.+.+.@.+.@.$.",
"$.; ; ; ; ; ; ; ; ; ; ; ; ; ; ; ; ; ; ; ; . Y v $ = ^ } { } ] H { | } { ^ 3 6 + E P c 9 9 9 9 ..9 o...o.X.X.o.o.o.+.o.@.@.@.@.$.",
"$.; ; ; ; ; ; ; ; ; ; ; ; ; ; ; ; ; ; & $ v U . ; l ] [ { { J , J } { } ] @ 6 1 C ) F 0 9 9 9 ......X.o.o.X.o.o.o.O.o.+.O.@.+.$.",
"$.; ; ; ; ; ; ; ; ; ; ; ; ; ; ; ; ; & * o Y B = $ P ] ] ] ` q & i W { { [ W p 6 t U T f 9 9 9 9 ........X.X.X.o.o.o.O.+.O.@.@.$.",
"$.; ; ; ; ; ; ; ; * ; ; ; ; ; ; * ; & q v U w * D ` _ _ _ N * ; * + [ { { [ H 5 7 G ) S 3 9 9 ........X.X.o.X.o.o.o.O.O.+.+.@.$.",
"$.; ; ; ; ; ; ; ; * ; ; ; ; ; ; & ; * n ) n * y Z C K K C q ; * * , ~ [ { { ` f 6 p I Y k 8 9 9 9 ........o.X.o.o.o.o.o.O.+.+.$.",
"$.; ; ; ; ; ; ; ; ; ; ; ; ; ; ; ; ; w U v u ; * # = = = = * * O u ; t ` [ { [ ! > 6 + E P c 8 ..........X.X.X.o.o.o.o.O.O.O.O.$.",
"$.; ; ; ; ; ; ; ; ; ; ; ; ; ; ; ; # C E O ; ; ; & ; ; * ; ; u v F * : N [ } { ] k 5 3 C ) @ 7 9 9 9 ......X.X.X.X.o.o.o.O.O.+.$.",
"$.; ; ; ; ; ; ; ; ; ; ; ; ; ; ; ; . Y v $ # . o X X X X X X B O n r & u R { { [ ^ 2 6 h R U d 8 9 9 9 ....X.X.X.X.o.o.o.o.O.O.$.",
"$.; ; ; ; ; ; ; ; ; ; ; ; ; ; ; y v U w &   v n m n m n b n X = r n = ; + _ ] ] ' @ 5 > G ) A 0 9 9 9 ......X.X.o.X.o.o.o.O.O.$.",
"$.; ; ; ; ; ; ; ; ; * ; ; ; ; ; D ) Z = $ v   * ; ; ; ; ; ; ; ; = m g ; , Q ` ' _ T a 5 a I Y k 8 9 9 9 X...X.X...o.o.o.o.O.O.$.",
"$.; ; ; ; ; ; ; ; ; ; ; ; ; ; q T P i ; b B = = w g g g g w g g g b C $ & r U _ ) ) G > 6 + E ~ 2 8 9 9 9 ....X...o.X.X.o.o.o.$.",
"$.; ; ; * ; ; ; ; ; ; ; ; ; = n E o ; i v r ; g U v C C v C B v C C C w ; : + G m G F p 6 3 Q E @ 8 8 9 ......X.X.o.o.X.o.o.o.$.",
"$.; ; ; ; ; ; ; ; ; ; ; ; ; w Y v $ = n o * # v B # = = = = # = = = = : ; ; ; ; 5 * 5 5 5 5 h U T s 9 8 9 9 ..........o.o.o.o.$.",
"$.; ; ; ; ; ; ; ; ; ; ; ; # v Y . ; w v y & . P q & & & ; & & ; ; ; ; ; ; ; ; ; ; ; ; 5 5 6 > G E N 0 9 9 9 ..9 ..X...X.o.X.o.$.",
"$.; ; ; ; ; ; ; ; ; ; ; ; O ) B = # K . ; $ v P X O O X O X O O O O O O X O O O O X + + + s 5 a T R z 8 9 9 9 X.......X.X.o.o.$.",
"$.; ; ; ; ; ; ; ; ; ; & y v Y r ; O C = ; w v K C C C v v v C v C C v C C C C v C C C C L V 1 5 + E ~ 4 8 9 9 9 ....X.o.X.o.X.$.",
"$.; ; ; ; ; ; ; ; ; ; * b ) m = y v r ; & = = = = = = = = = * = = = = = = = = = = = - : % C k 5 3 C E @ 8 8 9 9 9 ....X.X.X.X.$.",
"$.; ; ; ; ; ; ; ; ; & e Y v u * m v u y y y y $ y y $ u y y $ y $ $ y y $ $ y y $ $ $ % $ o ~ < 5 h Y P a 9 8 9 9 X...X.X.X.X.$.",
"$.; ; ; ; ; ; ; ; ; = B ) O & e v v v v v v v v v v v v v L v v v v v v v v v v L L L P L T U . 5 > N ) G 7 8 8 9 9 9 ..X.X.X.$.",
"$.; ; ; ; ; ; ; ; ;   Y v $ ; # e q i i i i q q u i i i i i i i q q i i q q i i i i i i u i i % 5 5 i T U h 8 8 8 9 9 ..9 X.X.$.",
"$.; ; ; ; ; ; ; & # v Y . = = # = = = = = = = = = = # = = = = = = = = = = = = = = = = = - - > 1 > 1 1 F ` Q 4 8 9 9 9 9 X...X.$.",
"$.; ; ; ; ; ; ; ; X Y E L v ~ ~ v v v v K ~ v K K K v ~ v v v v K L K v K v v C K K ~ K ~ v K K ~ ~ ~ P E R x 8 8 8 9 9 9 9 X.$.",
"$.; ; ; ; ; ; ; i P E Y ) ) ) ) E Y Y ) ) ) ) ) ) ) ) ) E E E ) E ) Y E ) ) ) E ) ) ) Y ) E ) ) E ) ) ) E E P p 8 8 9 9 9 X.X.$.",
"$.; ; ; ; ; ; ; i                             g                                                 k j k k k k k a 8 8 9 9 9 9 9 $.",
"$.; ; ; ; ; ; ; & ; ; & ; ; ; ; ; ; & ; ; ; ; ; ; & ; ; & ; & ; ; ; ; & ; ; ; ; ; ; ; & ; ; ; ; ; & 5 5 5 5 6 6 6 8 6 8 9 9 9 $.",
"$.; ; ; ; ; ; ; ; ; ; ; ; ; ; ; ; ; ; ; ; ; ; ; ; ; ; ; ; ; ; ; ; ; ; ; ; ; ; ; ; ; ; ; ; ; ; ; ; 5 ; 5 5 5 5 5 6 6 6 8 9 9 9 $.",
"$.; ; ; ; ; ; ; ; ; ; ; ; ; ; ; ; ; ; ; ; ; ; ; ; ; ; ; ; ; ; ; ; ; ; ; ; ; ; ; ; ; ; ; ; ; ; ; ; ; 5 ; * 5 5 5 6 6 8 8 8 9 8 $.",
"$.; ; ; ; ; ; ; ; ; ; ; ; ; ; ; * * ; ; ; ; ; ; ; ; ; ; ; ; ; ; ; ; ; ; ; ; ; ; ; ; ; ; ; ; ; ; ; ; 5 5 ; 5 5 5 5 6 6 6 7 8 9 $.",
"$.; ; ; ; ; ; ; ; ; ; ; ; ; ; ; ; ; ; ; ; ; ; ; ; ; ; ; ; ; ; ; ; ; ; ; ; ; ; ; ; ; ; ; ; ; ; ; ; ; ; ; 5 ; 5 5 5 5 6 6 8 8 8 $.",
"$.; ; ; ; ; ; ; ; ; ; ; ; ; ; ; ; ; ; ; ; ; ; ; ; ; ; ; ; ; ; ; ; ; ; ; ; ; ; ; ; ; ; ; ; ; ; ; ; ; ; ; ; ; ; 5 5 7 6 6 6 6 8 $.",
"$.; ; ; ; ; ; ; ; ; ; ; ; ; ; ; ; ; ; ; ; ; ; ; ; ; ; ; ; ; ; ; ; ; ; ; ; ; ; ; ; ; ; ; ; ; ; ; ; ; ; ; 5 ; 5 * 5 5 5 6 5 6 6 $.",
"$.; ; ; ; ; ; ; ; ; ; ; ; ; ; ; ; ; ; ; ; ; ; ; ; ; ; ; ; ; ; ; ; ; ; ; ; ; ; ; ; ; ; ; ; ; ; ; ; ; ; ; ; ; ; 5 ; : 6 5 5 6 6 $.",
"$.$.; ; ; ; ; ; ; ; ; ; ; ; ; ; ; ; ; ; ; ; ; ; ; ; ; ; ; ; ; ; ; ; ; ; ; ; ; ; ; ; ; ; ; ; ; ; ; ; ; ; ; ; ; 5 5 ; 5 5 5 6 $.$.",
"$.$.; ; ; ; ; ; ; ; ; ; ; ; ; ; ; ; ; ; ; ; ; ; ; ; ; ; ; ; ; ; ; ; ; ; ; ; ; ; ; ; ; ; ; ; ; ; ; ; ; ; ; ; ; ; ; 5 * 5 5 5 $.$.",
"$.$.$.$.; ; ; ; ; ; ; ; * ; ; ; ; ; ; ; ; ; ; ; ; ; ; ; ; ; ; ; ; ; ; ; ; ; ; ; ; ; ; ; ; ; ; ; ; ; ; ; ; ; ; ; ; ; 5 5 $.$.$.$.",
"$.$.$.$.$.; ; ; ; ; ; ; ; ; ; ; ; ; ; ; ; ; ; ; ; ; ; ; ; ; ; ; ; ; ; ; ; ; ; ; ; ; ; ; ; ; ; ; ; ; ; ; ; ; ; ; ; ; 5 $.$.$.$.$.",
"$.$.$.$.$.$.$.$.$.$.$.$.$.$.$.$.$.$.$.$.$.$.$.$.$.$.$.$.$.$.$.$.$.$.$.$.$.$.$.$.$.$.$.$.$.$.$.$.$.$.$.$.$.$.$.$.$.$.$.$.$.$.$.$."
};
